<?xml version="1.0" standalone="no"?>
<!DOCTYPE svg PUBLIC "-//W3C//DTD SVG 20010904//EN"
 "http://www.w3.org/TR/2001/REC-SVG-20010904/DTD/svg10.dtd">
<svg version="1.0" xmlns="http://www.w3.org/2000/svg"
 width="512.000000pt" height="512.000000pt" viewBox="0 0 512.000000 512.000000"
 preserveAspectRatio="xMidYMid meet">
<metadata>
Created by potrace 1.14, written by Peter Selinger 2001-2017
</metadata>
<g transform="translate(0.000000,512.000000) scale(0.100000,-0.100000)"
fill="#000000" stroke="none">
<path d="M4190 4970 c8 -5 20 -10 25 -10 6 0 3 5 -5 10 -8 5 -19 10 -25 10 -5
0 -3 -5 5 -10z"/>
<path d="M4330 4917 c8 -8 100 -47 100 -42 0 3 -12 11 -27 18 -32 17 -81 32
-73 24z"/>
<path d="M4427 4848 c-8 -12 -20 -41 -27 -63 -20 -62 -82 -193 -128 -267 -35
-56 -40 -72 -35 -103 5 -28 9 -35 22 -29 9 3 23 8 32 11 11 3 18 20 22 52 10
81 121 411 138 411 22 0 265 -112 325 -150 61 -38 116 -52 129 -31 3 5 -2 16
-10 25 -9 8 -17 19 -18 23 -1 4 -11 7 -22 7 -34 -3 -145 32 -260 81 -144 61
-150 62 -168 33z"/>
<path d="M4242 4846 c20 -6 40 -14 44 -18 10 -11 24 -10 24 1 0 11 -56 31 -84
30 -14 -1 -9 -5 16 -13z"/>
<path d="M4480 4702 l1 -47 14 40 c8 22 15 41 15 41 0 1 -7 4 -15 8 -12 4 -15
-4 -15 -42z"/>
<path d="M4560 4680 c7 -14 33 -72 56 -129 l43 -105 18 40 c10 21 22 42 28 46
11 8 -74 108 -124 147 l-34 26 13 -25z"/>
<path d="M220 4625 c-12 -13 -67 -55 -121 -92 l-98 -68 -1 -206 c0 -175 2
-208 15 -213 8 -3 15 -12 15 -21 0 -8 5 -15 10 -15 6 0 15 -10 20 -22 8 -21 9
-21 9 -3 2 37 58 140 95 173 51 44 104 45 139 1 l23 -30 13 43 c18 59 73 138
117 168 27 18 51 25 85 25 l47 0 60 123 c32 67 58 122 57 122 -2 0 -52 -19
-112 -43 -173 -70 -319 -101 -362 -77 -29 15 -27 64 4 118 27 47 20 55 -15 17z"/>
<path d="M4901 4625 c-60 -14 -171 -64 -171 -77 0 -8 2 -7 85 31 28 12 84 31
125 41 43 10 62 18 45 18 -16 0 -54 -6 -84 -13z"/>
<path d="M4463 4480 l3 -55 -65 -32 c-37 -18 -93 -47 -126 -65 -33 -18 -62
-34 -63 -35 -2 -1 0 -9 5 -17 8 -14 14 -12 47 10 21 15 81 46 132 71 104 49
99 38 73 143 -7 31 -8 28 -6 -20z"/>
<path d="M800 4433 c-7 -16 -14 -34 -16 -41 -4 -22 -14 -27 -14 -8 0 10 5 26
11 38 6 11 9 22 6 24 -2 2 -10 -8 -18 -24 -7 -15 -23 -43 -35 -62 -27 -45
-110 -252 -135 -338 -11 -37 -33 -127 -48 -201 -24 -109 -27 -137 -17 -156 11
-21 13 -19 24 30 14 59 93 313 113 360 6 17 14 38 16 49 2 10 8 26 14 35 11
16 8 -8 -7 -69 -4 -19 -3 -21 5 -10 7 10 9 -13 6 -80 l-4 -95 10 80 c9 78 52
279 89 420 20 77 20 90 0 48z m-233 -635 c-3 -8 -6 -5 -6 6 -1 11 2 17 5 13 3
-3 4 -12 1 -19z m-10 -40 c-3 -8 -6 -5 -6 6 -1 11 2 17 5 13 3 -3 4 -12 1 -19z"/>
<path d="M1054 4434 c-4 -16 -12 -36 -20 -44 -17 -20 -59 -134 -89 -240 -67
-237 -100 -583 -79 -812 7 -65 23 -85 25 -30 1 15 9 -73 19 -195 16 -195 55
-461 66 -450 2 2 -6 64 -17 138 -17 103 -22 183 -23 346 0 116 -4 209 -8 206
-5 -2 -8 3 -8 12 0 9 4 14 9 11 10 -7 21 27 21 67 0 45 21 27 36 -30 7 -28 19
-66 27 -84 l14 -34 -4 55 c-4 52 -2 48 39 -70 40 -117 43 -131 41 -225 -1
-108 -28 -256 -69 -386 -14 -44 -29 -77 -35 -74 -14 9 -11 -26 8 -81 17 -49
17 -49 24 -19 4 17 19 57 34 90 26 58 111 297 122 343 3 12 8 22 12 22 3 0 21
-31 39 -68 33 -67 82 -145 89 -139 2 2 -4 20 -12 40 -20 48 -12 47 21 -3 15
-22 28 -39 30 -37 1 1 -11 30 -28 64 -32 66 -35 113 -2 53 l19 -35 5 65 c6 78
22 105 73 125 49 20 47 20 47 -17 0 -33 26 -153 36 -169 3 -5 13 0 23 12 16
20 21 21 55 9 34 -11 37 -15 32 -39 -5 -21 -4 -23 4 -8 6 9 17 17 25 17 8 0
12 6 9 13 -3 8 2 14 11 14 9 0 26 -19 37 -41 37 -74 89 -116 144 -116 49 0 19
-10 -62 -20 -55 -7 -88 -7 -111 1 -35 11 -73 56 -76 89 -1 13 -5 16 -11 10 -6
-6 -22 -10 -37 -10 l-28 0 15 -51 c9 -28 13 -57 10 -64 -11 -30 38 -33 159 -9
66 13 161 29 212 35 67 9 93 17 97 28 3 9 8 21 11 27 4 7 -8 14 -30 18 -51 10
-47 36 5 29 35 -5 40 -3 40 14 0 11 3 41 6 67 l7 46 -41 0 c-22 0 -44 5 -47
11 -9 13 22 37 59 46 27 6 28 8 22 49 -5 36 -2 45 13 53 10 6 22 7 26 3 12
-10 -6 20 -23 40 -7 9 -12 21 -9 26 9 13 -46 41 -100 51 -70 14 -477 -23 -563
-51 -41 -13 -83 -38 -75 -46 6 -6 -14 -32 -25 -32 -3 0 -7 6 -8 13 0 6 -5 48
-10 92 -16 134 -11 445 8 635 18 167 23 255 13 218 -6 -23 -23 -23 -23 -1 0
43 -12 -6 -35 -142 -23 -133 -25 -171 -22 -369 3 -200 6 -232 31 -340 26 -110
28 -182 6 -160 -11 11 -70 173 -111 304 -17 52 -32 101 -35 109 -3 10 -8 11
-15 4 -18 -18 49 -270 112 -426 23 -57 25 -67 9 -47 -24 30 -104 217 -137 320
-30 91 -58 226 -73 340 -15 122 -12 425 5 565 13 109 21 151 46 254 5 19 7 37
4 39 -2 2 -7 -9 -11 -24z m918 -1469 c0 -5 -5 -11 -11 -13 -6 -2 -11 4 -11 13
0 9 5 15 11 13 6 -2 11 -8 11 -13z m-98 -26 c-3 -5 -10 -7 -15 -3 -5 3 -7 10
-3 15 3 5 10 7 15 3 5 -3 7 -10 3 -15z m84 -162 c2 -12 -3 -17 -17 -17 -15 0
-21 6 -21 21 0 25 33 22 38 -4z m30 -78 c-7 -5 -26 -8 -43 -8 l-30 1 32 14
c17 7 35 19 39 26 6 10 10 8 12 -6 2 -10 -2 -22 -10 -27z"/>
<path d="M4715 4448 c-3 -8 8 -38 25 -68 23 -40 30 -47 25 -26 -3 15 -9 41
-12 57 -7 35 -30 58 -38 37z"/>
<path d="M1450 4367 c0 -4 -11 -45 -25 -93 -22 -74 -66 -305 -64 -330 0 -5 7
7 14 26 13 32 14 27 9 -65 -3 -55 -7 -106 -9 -112 -3 -7 0 -13 5 -13 6 0 10
26 11 58 0 31 4 80 8 107 6 41 9 46 14 25 4 -14 8 -45 10 -70 2 -25 4 11 5 80
1 69 9 183 17 254 9 71 13 131 10 134 -3 3 -5 2 -5 -1z m-53 -339 c-3 -8 -6
-5 -6 6 -1 11 2 17 5 13 3 -3 4 -12 1 -19z"/>
<path d="M4831 4313 c-1 -12 4 -25 9 -28 12 -7 12 2 0 30 -8 19 -9 19 -9 -2z"/>
<path d="M4771 4320 c-1 -3 8 -29 20 -59 11 -30 16 -57 12 -61 -14 -13 -137
-58 -178 -65 -59 -11 -84 -36 -49 -49 9 -4 24 0 33 8 16 15 145 77 188 90 20
6 24 0 52 -89 17 -52 31 -106 31 -119 0 -31 28 -56 41 -35 13 20 11 35 -5 48
-18 15 -92 199 -83 207 11 12 173 64 198 64 33 0 60 27 39 40 -9 6 -28 0 -54
-15 -42 -24 -185 -79 -191 -73 -2 2 -15 28 -28 58 -14 30 -26 53 -26 50z"/>
<path d="M4712 4268 c6 -21 15 -38 20 -38 14 0 8 24 -12 50 l-19 25 11 -37z"/>
<path d="M5082 4244 l-29 -57 -70 2 c-89 3 -101 -8 -72 -66 11 -23 31 -53 45
-68 28 -31 30 -58 7 -111 -20 -47 -27 -92 -12 -77 6 6 21 43 34 84 l23 74 -33
37 c-43 47 -68 95 -55 103 6 4 38 5 73 4 l62 -3 33 63 c18 35 31 65 28 68 -2
3 -18 -21 -34 -53z"/>
<path d="M4053 4250 c0 -25 2 -35 4 -22 2 12 2 32 0 45 -2 12 -4 2 -4 -23z"/>
<path d="M1329 4123 c-16 -97 -16 -96 -3 -100 11 -4 31 163 21 173 -2 3 -10
-30 -18 -73z"/>
<path d="M4064 4065 c0 -60 1 -84 3 -52 2 32 2 81 0 110 -2 29 -3 3 -3 -58z"/>
<path d="M4700 4098 c-36 -29 -71 -61 -79 -71 -13 -18 -14 -18 -40 5 -15 13
-12 8 6 -10 18 -18 33 -39 33 -47 0 -7 5 -17 10 -20 6 -4 10 7 10 24 0 33 13
49 72 95 l37 27 10 -38 c49 -188 84 -375 172 -928 68 -429 172 -991 185 -1004
3 -3 3 127 2 289 -3 294 -4 296 -41 490 -54 280 -151 847 -161 942 -5 50 -13
71 -24 64 -4 -2 -26 6 -50 18 l-43 21 -3 86 c-3 83 -9 109 -24 109 -4 0 -36
-23 -72 -52z"/>
<path d="M4723 3935 c0 -27 2 -38 4 -22 2 15 2 37 0 50 -2 12 -4 0 -4 -28z"/>
<path d="M2021 3934 c0 -11 3 -14 6 -6 3 7 2 16 -1 19 -3 4 -6 -2 -5 -13z"/>
<path d="M1320 3827 c-3 -49 -2 -96 2 -105 6 -16 7 -16 7 1 1 11 9 17 25 17
22 0 25 -5 29 -47 l3 -48 2 52 2 52 143 0 c158 0 282 -17 396 -55 40 -14 76
-22 79 -20 9 10 -109 49 -219 73 -64 13 -130 18 -271 18 l-187 0 -3 75 -3 75
-5 -88z"/>
<path d="M4623 3840 c0 -25 2 -35 4 -22 2 12 2 32 0 45 -2 12 -4 2 -4 -23z"/>
<path d="M692 3845 c0 -16 2 -22 5 -12 2 9 2 23 0 30 -3 6 -5 -1 -5 -18z"/>
<path d="M3245 3800 c-63 -7 -188 -40 -181 -47 2 -2 33 3 69 11 64 15 226 33
352 39 33 2 6 3 -60 4 -66 0 -147 -3 -180 -7z"/>
<path d="M3560 3798 c0 -5 15 -8 34 -8 19 0 43 -3 53 -6 12 -5 15 -4 8 4 -12
12 -95 21 -95 10z"/>
<path d="M673 3741 c-183 -478 -202 -522 -188 -431 3 25 9 54 11 65 4 16 3 17
-5 5 -27 -43 -47 -371 -32 -528 12 -120 29 -200 30 -143 1 14 9 34 20 45 10
12 51 71 92 131 41 61 76 112 79 115 9 9 29 43 48 80 9 19 21 38 26 41 5 4 2
44 -7 90 -14 73 -29 180 -41 284 -1 17 -3 -26 -2 -95 l1 -125 -51 -105 c-28
-58 -76 -147 -107 -198 -32 -51 -57 -97 -57 -102 0 -6 -4 -10 -9 -10 -14 0
-19 91 -7 126 21 60 197 499 212 529 11 23 14 60 12 157 l-3 126 -22 -57z"/>
<path d="M2001 3784 c0 -11 3 -14 6 -6 3 7 2 16 -1 19 -3 4 -6 -2 -5 -13z"/>
<path d="M3678 3783 c6 -2 18 -2 25 0 6 3 1 5 -13 5 -14 0 -19 -2 -12 -5z"/>
<path d="M4601 3713 c-28 -177 -99 -426 -181 -628 -69 -172 -213 -431 -319
-570 -34 -46 -49 -78 -63 -134 -9 -41 -16 -77 -14 -79 6 -5 36 102 36 126 0
11 15 38 34 61 43 52 151 214 207 311 43 74 149 302 149 320 0 17 18 20 24 4
3 -8 2 -13 -3 -10 -12 8 -20 -29 -10 -45 7 -11 9 -10 9 4 0 9 4 17 8 17 11 0
36 80 28 88 -3 3 -6 -2 -6 -11 0 -21 -19 -32 -25 -14 -3 7 4 36 17 63 24 53
25 58 27 92 0 12 5 22 11 22 10 0 8 -56 -3 -67 -4 -3 -7 -18 -6 -32 l0 -26 10
23 c5 13 12 38 15 55 3 17 7 33 10 36 2 2 -2 11 -10 20 -12 14 -11 24 6 76 11
33 24 85 29 115 5 30 12 72 15 92 4 21 9 36 13 34 3 -2 7 27 8 65 1 38 0 69
-1 69 -2 0 -9 -35 -15 -77z"/>
<path d="M3738 3773 c7 -3 16 -2 19 1 4 3 -2 6 -13 5 -11 0 -14 -3 -6 -6z"/>
<path d="M3790 3770 c0 -5 5 -10 11 -10 5 0 7 5 4 10 -3 6 -8 10 -11 10 -2 0
-4 -4 -4 -10z"/>
<path d="M4697 3535 c-29 -391 -105 -1023 -163 -1355 -68 -393 -170 -763 -306
-1105 -60 -153 -205 -455 -286 -600 -127 -225 -170 -297 -223 -377 -33 -49
-59 -90 -59 -93 0 -3 108 -5 239 -5 220 0 240 1 244 18 3 9 10 42 17 72 47
223 168 485 282 613 42 48 45 49 143 69 143 28 358 22 463 -14 l72 -24 -1 290
c-1 215 -4 274 -10 226 -5 -36 -12 -76 -15 -90 -6 -23 -7 -23 -13 -5 -8 19 -8
19 -26 -3 -18 -20 -20 -20 -37 -5 -9 8 -26 13 -36 11 -18 -5 -19 8 -25 301 -7
303 -28 706 -50 956 l-12 129 -40 -68 c-58 -99 -283 -332 -302 -312 -3 3 0 38
6 78 37 217 80 523 91 653 15 169 12 163 66 171 36 5 55 2 83 -12 20 -10 39
-20 43 -22 4 -2 5 12 2 30 -2 18 -15 123 -29 233 -31 252 -46 328 -40 205 4
-93 0 -95 -14 -10 l-9 55 -2 -55 -2 -55 -9 44 c-11 59 -23 67 -17 11 3 -25 2
-54 -2 -65 -5 -11 -6 62 -3 163 3 100 3 182 1 182 -2 0 -11 -106 -21 -235z
m-119 -2667 c-9 -7 -8 -8 7 -6 11 2 29 -4 39 -14 22 -20 46 -24 46 -7 0 5 5 7
10 4 6 -3 10 -11 10 -16 0 -6 -4 -7 -10 -4 -5 3 -10 2 -10 -4 0 -5 6 -12 13
-14 7 -3 5 -6 -5 -6 -10 -1 -18 2 -18 7 0 14 -65 42 -102 44 -44 1 -42 22 3
24 21 1 27 -2 17 -8z"/>
<path d="M1992 3725 c0 -16 2 -22 5 -12 2 9 2 23 0 30 -3 6 -5 -1 -5 -18z"/>
<path d="M382 3700 c0 -14 2 -19 5 -12 2 6 2 18 0 25 -3 6 -5 1 -5 -13z"/>
<path d="M1333 3625 c0 -27 2 -38 4 -22 2 15 2 37 0 50 -2 12 -4 0 -4 -28z"/>
<path d="M4760 3631 c0 -22 -4 -30 -12 -25 -7 4 -8 3 -4 -4 13 -22 36 -1 30
27 -10 38 -14 39 -14 2z"/>
<path d="M1383 3560 c0 -47 2 -66 4 -42 2 23 2 61 0 85 -2 23 -4 4 -4 -43z"/>
<path d="M530 3628 c0 -3 -9 -50 -20 -103 -11 -53 -20 -105 -19 -114 1 -9 12
35 25 98 13 63 22 117 19 119 -3 3 -5 3 -5 0z"/>
<path d="M2632 3610 c0 -14 2 -19 5 -12 2 6 2 18 0 25 -3 6 -5 1 -5 -13z"/>
<path d="M4605 3600 c-3 -5 -1 -10 4 -10 6 0 11 5 11 10 0 6 -2 10 -4 10 -3 0
-8 -4 -11 -10z"/>
<path d="M2645 3525 c3 -33 7 -78 10 -100 l5 -40 -14 30 c-20 40 -20 34 5
-103 21 -119 57 -265 83 -340 8 -23 13 -42 10 -42 -5 0 24 -58 73 -148 38 -68
54 -77 29 -17 -9 21 -16 52 -16 71 0 18 -18 87 -40 154 -46 140 -80 268 -121
460 -21 98 -27 119 -24 75z m22 -177 c-3 -8 -6 -5 -6 6 -1 11 2 17 5 13 3 -3
4 -12 1 -19z m10 -60 c-3 -8 -6 -5 -6 6 -1 11 2 17 5 13 3 -3 4 -12 1 -19z"/>
<path d="M4602 3560 c0 -14 2 -19 5 -12 2 6 2 18 0 25 -3 6 -5 1 -5 -13z"/>
<path d="M4732 3560 c0 -14 2 -19 5 -12 2 6 2 18 0 25 -3 6 -5 1 -5 -13z"/>
<path d="M336 3521 c-4 -5 3 -7 14 -4 23 6 26 13 6 13 -8 0 -17 -4 -20 -9z"/>
<path d="M4187 3430 c-33 -118 -35 -128 -30 -117 3 4 8 7 12 7 9 0 -8 -106
-34 -227 -17 -75 -24 -84 -45 -58 -7 8 -9 15 -4 15 34 0 -111 60 -181 76 -107
23 -324 46 -491 51 -196 6 -202 6 -247 -17 -48 -24 -63 -42 -27 -33 23 6 28
-12 6 -20 -8 -3 -19 -14 -25 -25 -9 -17 -4 -18 82 -19 l91 0 -3 -42 c-1 -24 0
-65 4 -92 6 -46 8 -49 31 -43 28 7 83 -13 85 -30 1 -6 1 -17 0 -25 -2 -7 2
-10 8 -7 6 4 13 -5 17 -21 3 -15 10 -40 16 -54 37 -99 187 -140 273 -73 17 13
18 16 5 24 -12 7 -12 12 -2 22 9 9 15 9 24 0 13 -13 29 -16 27 -4 -3 18 2 22
14 10 7 -7 14 -17 15 -22 1 -13 76 -45 85 -36 4 4 21 41 36 83 l29 76 -27 -5
c-33 -7 -81 11 -81 30 0 19 64 40 96 32 23 -6 24 -4 24 44 0 49 0 50 25 38 41
-18 68 -72 63 -122 l-5 -42 35 32 c61 55 65 31 27 -136 -14 -60 -30 -122 -36
-137 -5 -15 -6 -23 -1 -18 15 16 52 122 45 129 -4 3 -1 6 5 6 11 0 95 206 131
323 11 37 17 75 14 84 -4 10 -2 14 4 10 6 -4 13 0 16 8 4 9 1 12 -8 9 -12 -5
-12 0 -5 28 19 66 9 62 -25 -10 -19 -41 -39 -71 -44 -68 -11 7 -23 -22 -14
-36 3 -6 1 -8 -5 -4 -6 3 -13 -3 -17 -14 -3 -11 -11 -20 -16 -20 -12 0 -13 -6
20 103 17 53 33 113 36 134 4 21 11 52 17 70 6 23 6 38 -2 50 -11 17 -11 17
-6 1 6 -20 -10 -25 -17 -5 -4 10 -6 10 -6 0 -1 -7 -5 -13 -10 -13 -5 0 0 39
10 88 28 124 19 132 -14 12z m-332 -499 c7 -12 -12 -24 -25 -16 -11 7 -4 25
10 25 5 0 11 -4 15 -9z m-253 -33 c-15 -15 -26 -4 -18 18 5 13 9 15 18 6 9 -9
9 -15 0 -24z m108 -143 c10 -12 10 -18 0 -30 -7 -8 -18 -15 -25 -15 -7 0 -18
7 -25 15 -10 12 -10 18 0 30 7 8 18 15 25 15 7 0 18 -7 25 -15z"/>
<path d="M1342 3500 c0 -14 2 -19 5 -12 2 6 2 18 0 25 -3 6 -5 1 -5 -13z"/>
<path d="M4582 3480 c-6 -24 -6 -42 -1 -46 5 -3 9 -2 7 3 -1 4 2 23 6 41 4 18
6 36 3 38 -2 3 -9 -13 -15 -36z"/>
<path d="M245 3500 c-13 -6 -15 -9 -5 -9 8 0 22 4 30 9 18 12 2 12 -25 0z"/>
<path d="M362 3480 c0 -14 2 -19 5 -12 2 6 2 18 0 25 -3 6 -5 1 -5 -13z"/>
<path d="M1351 3444 c0 -11 3 -14 6 -6 3 7 2 16 -1 19 -3 4 -6 -2 -5 -13z"/>
<path d="M4562 3395 c-14 -31 -15 -45 -3 -45 8 0 24 60 18 67 -2 2 -9 -8 -15
-22z"/>
<path d="M3203 3273 c9 -2 23 -2 30 0 6 3 -1 5 -18 5 -16 0 -22 -2 -12 -5z"/>
<path d="M3308 3273 c12 -2 32 -2 45 0 12 2 2 4 -23 4 -25 0 -35 -2 -22 -4z"/>
<path d="M34 3248 l-19 -23 23 19 c21 18 27 26 19 26 -2 0 -12 -10 -23 -22z"/>
<path d="M0 3209 c0 -5 5 -7 10 -4 5 3 10 8 10 11 0 2 -4 4 -10 4 -5 0 -10 -5
-10 -11z"/>
<path d="M4497 3207 c-3 -8 1 -14 8 -14 7 0 11 6 8 14 -3 7 -6 13 -8 13 -2 0
-5 -6 -8 -13z"/>
<path d="M4220 3105 c-7 -9 -10 -18 -7 -21 3 -3 10 4 17 15 13 25 8 27 -10 6z"/>
<path d="M4440 3058 c0 -9 5 -20 10 -23 13 -8 13 5 0 25 -8 13 -10 13 -10 -2z"/>
<path d="M780 3005 c0 -55 -91 -353 -167 -545 -25 -63 -83 -193 -128 -287 -54
-111 -80 -175 -73 -179 7 -4 8 -2 4 4 -4 7 -3 12 3 12 5 0 12 -6 14 -12 4 -10
8 -9 16 2 8 11 11 12 11 2 0 -7 4 -10 10 -7 6 3 10 3 10 0 0 -14 -199 -241
-359 -410 -131 -138 -130 -145 1 -16 69 68 130 124 134 125 5 0 8 4 7 8 -2 4
8 15 20 25 13 10 25 22 28 28 2 5 16 10 32 11 15 1 30 4 34 8 3 3 -8 4 -25 2
-26 -3 -30 -1 -21 10 6 8 15 11 20 8 5 -3 8 -1 7 5 -2 5 22 39 52 75 45 53 57
62 70 53 12 -9 13 -9 3 2 -9 11 3 32 61 105 40 51 85 111 100 134 51 82 41 50
-49 -143 -20 -44 -44 -88 -52 -97 -9 -10 -13 -18 -9 -18 9 0 -31 -70 -102
-179 -35 -53 -57 -79 -62 -71 -5 8 -9 7 -13 -5 -5 -10 -3 -14 4 -9 7 4 10 1 7
-7 -3 -8 -10 -13 -16 -12 -6 2 -9 -5 -6 -15 5 -14 3 -14 -10 2 -9 11 -16 15
-16 9 0 -7 5 -15 10 -18 11 -7 -47 -95 -62 -95 -5 0 -6 5 -2 12 4 7 3 8 -4 4
-6 -4 -9 -12 -6 -19 2 -7 -3 -22 -13 -32 -10 -11 -24 -28 -32 -38 -12 -16 -12
-17 5 -11 16 6 15 3 -5 -19 -13 -15 -27 -24 -31 -22 -4 3 -15 -4 -24 -14 -10
-11 -13 -22 -8 -25 12 -7 276 262 406 414 53 63 137 174 186 246 88 130 260
417 260 434 0 5 -5 20 -12 34 -10 24 -13 21 -53 -72 -102 -236 -196 -394 -350
-587 -90 -113 -335 -378 -343 -370 -3 3 10 22 29 43 84 89 219 292 295 445
126 251 194 455 258 778 l25 124 -30 97 c-17 54 -32 98 -35 98 -2 0 -4 -11 -4
-25z"/>
<path d="M361 2958 c-118 -272 -226 -495 -314 -644 l-48 -81 3 -99 3 -99 61
105 c34 58 74 129 89 159 15 30 75 111 134 180 58 69 116 140 128 156 19 25
24 28 33 15 9 -12 10 -9 4 10 -14 51 -43 125 -43 114 -1 -7 -17 -35 -36 -64
-19 -29 -32 -56 -29 -61 3 -5 1 -9 -4 -9 -14 0 -22 -41 -12 -60 7 -13 4 -22
-12 -36 -19 -17 -21 -17 -15 -1 17 42 17 50 2 24 -9 -15 -13 -31 -10 -36 3 -5
-4 -20 -15 -33 -11 -12 -28 -34 -39 -48 -11 -14 -3 9 18 50 21 41 50 107 66
145 15 39 41 98 57 132 25 53 28 70 23 110 -15 114 -21 124 -44 71z"/>
<path d="M4406 2925 c-9 -26 -7 -32 5 -12 6 10 9 21 6 23 -2 3 -7 -2 -11 -11z"/>
<path d="M4376 2884 c-8 -22 -4 -25 11 -9 7 8 9 16 4 19 -5 3 -12 -1 -15 -10z"/>
<path d="M3304 2737 c6 -58 4 -66 -11 -70 -21 -4 -27 -3 273 -51 121 -20 234
-36 250 -36 28 0 73 20 47 20 -7 0 -10 6 -7 14 4 9 -6 20 -25 30 -24 13 -29
13 -25 3 11 -30 -20 -37 -122 -27 -89 8 -242 33 -286 46 -20 6 -47 71 -42 101
3 15 -1 23 -10 23 -8 0 -22 3 -32 7 -16 6 -16 0 -10 -60z"/>
<path d="M1307 2665 c37 -144 -47 -392 -244 -719 -47 -78 -92 -149 -101 -159
-8 -9 -12 -20 -9 -23 3 -4 -4 -15 -16 -25 -12 -10 -16 -18 -9 -19 6 0 12 5 12
12 0 6 8 4 19 -6 11 -10 25 -15 30 -11 6 3 14 -1 17 -9 9 -24 40 -2 64 44 11
22 23 40 25 40 9 0 -36 -82 -79 -145 -101 -148 -269 -324 -641 -670 -93 -87
-216 -203 -271 -256 l-102 -98 -1 -190 c-1 -113 2 -191 7 -191 17 0 22 -44 7
-60 -12 -13 -12 -19 -2 -30 9 -10 9 -11 -1 -6 -9 6 -12 -1 -10 -27 1 -24 6
-33 15 -30 9 4 11 0 7 -11 -3 -9 -9 -14 -13 -12 -4 3 -8 -4 -8 -15 -1 -10 0
-19 2 -19 6 0 153 206 278 390 234 346 492 788 481 825 -4 15 -3 16 4 6 7 -10
18 3 43 54 22 44 67 105 125 169 135 149 146 156 94 61 -328 -604 -641 -1114
-897 -1463 l-54 -73 117 3 116 3 75 130 c100 175 225 428 302 610 78 185 140
322 227 496 37 74 79 161 94 194 112 241 117 250 213 362 52 62 100 120 105
130 6 10 13 15 17 11 16 -16 -237 -577 -507 -1122 -115 -230 -208 -424 -208
-432 0 -8 -5 -14 -11 -14 -5 0 -7 -4 -4 -10 3 -5 1 -10 -5 -10 -7 0 -9 -7 -6
-16 3 -8 2 -12 -4 -9 -6 3 -10 -2 -10 -13 0 -10 -38 -83 -84 -163 -79 -134
-88 -159 -51 -145 21 8 225 257 219 268 -3 4 -1 7 3 6 5 -2 31 24 58 57 27 33
51 62 54 65 4 3 33 35 65 73 46 52 65 86 88 150 35 98 141 424 193 592 32 103
277 732 307 790 10 17 14 13 36 -35 14 -30 37 -70 53 -89 15 -19 25 -39 22
-45 -3 -6 -3 -8 2 -4 10 10 57 -40 50 -53 -4 -5 -1 -9 4 -9 6 0 11 -5 11 -10
0 -6 18 -35 40 -64 l40 -52 6 -140 c6 -118 -1 -272 -21 -531 -2 -24 1 -43 6
-43 41 0 0 -100 -53 -130 -61 -34 -98 -70 -160 -154 -103 -139 -109 -166 -18
-79 25 23 73 63 106 87 63 46 67 52 170 271 31 66 63 124 74 135 3 3 32 60 65
128 54 112 85 161 85 135 0 -22 -34 -120 -65 -188 l-33 -73 97 -12 c53 -6 105
-14 116 -16 17 -4 20 1 22 33 1 21 5 53 8 72 l7 35 27 -30 c15 -16 42 -40 60
-53 27 -21 32 -31 29 -59 l-3 -34 115 -29 c63 -17 142 -31 175 -32 l60 -2 3
141 3 141 -52 6 c-41 5 -84 26 -223 108 -488 291 -655 415 -761 564 -83 118
-104 174 -139 384 -26 154 -62 302 -91 376 -9 24 -12 28 -8 10z m68 -365 c3
-29 8 -57 12 -63 4 -6 1 -7 -7 -2 -10 6 -12 2 -8 -18 6 -30 -17 -46 -27 -19
-5 14 -7 14 -16 2 -8 -12 -9 -11 -5 5 3 11 13 51 22 88 9 37 18 66 20 64 2 -2
6 -28 9 -57z m-557 -945 c-6 -14 -15 -25 -20 -25 -5 0 -6 -4 -3 -10 4 -6 -1
-7 -12 -3 -15 6 -16 4 -5 -9 9 -11 10 -18 2 -23 -5 -3 -10 -1 -10 5 0 6 -5 8
-10 5 -6 -4 -7 -11 -4 -17 4 -7 2 -8 -5 -4 -6 4 -8 13 -4 19 7 12 76 86 80 87
2 0 -3 -11 -9 -25z m-109 -108 c-2 -1 -13 -9 -24 -17 -19 -14 -19 -14 -6 3 7
9 18 17 24 17 6 0 8 -1 6 -3z m1014 -307 c-3 -11 -9 -17 -15 -14 -5 3 -4 12 3
20 16 19 18 18 12 -6z m-128 -212 c-3 -8 -12 -15 -20 -15 -12 0 -11 4 3 17 20
20 25 19 17 -2z m-70 -88 c-3 -5 -11 -10 -17 -10 -6 0 -17 -8 -24 -17 -13 -17
-14 -17 -8 0 4 10 16 23 28 27 28 12 28 12 21 0z m-740 -69 c3 -5 2 -12 -3
-15 -5 -3 -9 1 -9 9 0 17 3 19 12 6z m-42 -186 c-3 -9 -8 -14 -10 -11 -3 3 -2
9 2 15 9 16 15 13 8 -4z"/>
<path d="M981 2634 c0 -11 3 -14 6 -6 3 7 2 16 -1 19 -3 4 -6 -2 -5 -13z"/>
<path d="M484 2563 c4 -14 -1 -37 -14 -62 -28 -56 -18 -52 14 5 24 42 24 47 9
62 -14 15 -15 14 -9 -5z"/>
<path d="M415 2399 c-58 -111 -196 -328 -317 -496 -48 -68 -84 -123 -80 -123
4 0 22 22 40 48 17 26 59 85 93 132 102 143 301 470 285 470 -3 0 -13 -14 -21
-31z"/>
<path d="M2401 2344 c0 -11 3 -14 6 -6 3 7 2 16 -1 19 -3 4 -6 -2 -5 -13z"/>
<path d="M439 1973 c-13 -16 -12 -17 4 -4 9 7 17 15 17 17 0 8 -8 3 -21 -13z"/>
<path d="M3840 1827 c-63 -67 -177 -160 -250 -205 -20 -11 -36 -29 -37 -39 -1
-10 -7 -47 -13 -83 -7 -36 -14 -159 -16 -274 -4 -172 -2 -212 10 -231 13 -20
13 -25 -1 -46 l-17 -24 22 19 c12 11 22 27 22 36 0 9 4 20 9 25 13 13 113 243
163 375 44 115 180 513 176 514 -2 1 -32 -30 -68 -67z"/>
<path d="M2406 1841 c-4 -5 3 -7 14 -4 23 6 26 13 6 13 -8 0 -17 -4 -20 -9z"/>
<path d="M2679 1824 c19 -8 36 -12 39 -9 5 5 -43 25 -61 25 -7 -1 3 -7 22 -16z"/>
<path d="M456 1815 c-9 -26 -7 -32 5 -12 6 10 9 21 6 23 -2 3 -7 -2 -11 -11z"/>
<path d="M415 1749 c-4 -6 -5 -12 -2 -15 2 -3 7 2 10 11 7 17 1 20 -8 4z"/>
<path d="M289 1728 c-5 -9 -5 -48 -1 -43 6 6 11 45 5 45 -2 0 -4 -1 -4 -2z"/>
<path d="M1000 1660 c-6 -11 -8 -20 -6 -20 3 0 10 9 16 20 6 11 8 20 6 20 -3
0 -10 -9 -16 -20z"/>
<path d="M87 1353 c-4 -3 -2 -12 5 -20 9 -11 5 -20 -17 -43 -17 -17 -24 -33
-19 -41 5 -9 2 -11 -9 -6 -16 6 -40 -15 -43 -40 -3 -16 3 -12 100 79 48 46 50
49 33 65 -15 14 -18 15 -15 3 2 -8 -4 -15 -12 -15 -8 0 -14 6 -12 13 2 13 -1
15 -11 5z m-47 -117 c0 -2 -8 -10 -17 -17 -16 -13 -17 -12 -4 4 13 16 21 21
21 13z"/>
<path d="M1223 1019 c-6 -19 -33 -93 -61 -166 l-50 -132 50 34 c27 19 65 37
84 41 19 3 37 10 40 15 3 5 34 9 70 9 l64 0 0 98 c0 60 -4 92 -9 83 -5 -8 -16
-11 -24 -8 -9 3 -18 1 -21 -6 -2 -7 -5 -4 -5 6 -1 12 -9 17 -31 17 -17 0 -39
9 -50 20 -19 19 -21 19 -27 3 -6 -15 -7 -15 -13 1 -5 14 -8 11 -17 -15z"/>
<path d="M3454 793 c-32 -38 -114 -129 -182 -203 l-124 -135 136 140 c74 77
136 136 136 132 0 -4 -9 -26 -21 -48 -39 -77 -13 -48 30 34 24 45 55 97 68
115 39 53 19 37 -43 -35z m-22 -55 c-7 -7 -12 -8 -12 -2 0 14 12 26 19 19 2
-3 -1 -11 -7 -17z"/>
<path d="M1583 813 c9 -2 23 -2 30 0 6 3 -1 5 -18 5 -16 0 -22 -2 -12 -5z"/>
<path d="M3253 428 c-53 -85 -55 -88 -49 -88 2 0 19 24 37 53 17 28 38 62 47
75 8 12 12 22 9 22 -3 0 -23 -28 -44 -62z"/>
<path d="M2210 416 c0 -2 7 -7 16 -10 8 -3 12 -2 9 4 -6 10 -25 14 -25 6z"/>
<path d="M1451 362 c-11 -27 -17 -29 -93 -38 l-82 -9 -38 -70 c-31 -58 -77
-159 -105 -232 -4 -10 0 -14 13 -11 11 2 21 6 24 9 3 3 34 9 69 13 55 6 63 5
58 -8 -4 -9 -2 -16 3 -16 6 0 10 7 10 15 0 8 4 15 10 15 5 0 7 -7 4 -15 -4 -8
-1 -15 5 -15 6 0 11 3 11 8 0 4 5 25 10 47 9 39 8 39 -8 19 -16 -21 -20 -21
-77 -8 -33 7 -66 13 -73 13 -9 1 -9 7 1 33 14 35 53 49 60 20 4 -16 5 -16 6 1
1 15 9 17 54 15 l52 -3 0 43 c0 31 5 46 18 53 9 6 17 6 17 2 0 -8 -29 -149
-45 -220 l-5 -23 316 0 c299 0 317 1 344 20 27 19 27 19 45 0 10 -11 31 -20
47 -20 27 0 28 2 28 50 0 28 5 50 10 50 18 0 10 28 -17 61 -15 17 -51 47 -80
66 -49 31 -52 35 -43 59 6 14 10 34 10 45 0 20 -4 20 -122 14 -104 -6 -138 -4
-218 13 -52 11 -120 23 -151 27 -55 6 -56 5 -68 -23z m-163 -126 c15 5 15 4 0
-6 -21 -13 -24 -32 -4 -24 8 3 27 -1 43 -10 30 -16 17 -20 -36 -10 -19 4 -31
13 -31 23 0 14 -2 14 -10 1 -14 -21 -12 -3 2 23 6 13 13 17 15 10 3 -7 12 -10
21 -7z m64 -8 c-2 -10 -13 -18 -23 -18 -21 0 -22 2 -14 22 8 21 43 17 37 -4z"/>
<path d="M3150 265 c-39 -59 -45 -65 -77 -65 -29 0 -36 5 -49 35 -8 19 -16 35
-19 35 -3 0 -24 -13 -47 -30 -22 -17 -49 -30 -58 -30 -16 0 -53 -31 -210 -178
l-35 -32 170 2 169 3 94 145 c102 158 115 180 109 180 -3 0 -24 -29 -47 -65z"/>
<path d="M2924 248 l-29 -33 33 29 c17 17 32 31 32 33 0 8 -8 1 -36 -29z"/>
<path d="M1370 219 c0 -5 5 -7 10 -4 6 3 10 8 10 11 0 2 -4 4 -10 4 -5 0 -10
-5 -10 -11z"/>
<path d="M2745 203 c-127 -16 -234 -37 -300 -58 -104 -34 -216 -95 -226 -123
l-8 -22 193 0 194 0 83 74 c46 40 97 88 113 105 l30 31 -25 -1 c-13 -1 -37 -4
-54 -6z"/>
<path d="M1340 114 c-24 -13 -24 -14 -4 -14 12 0 24 7 28 15 3 8 4 15 3 14 -1
-1 -13 -7 -27 -15z"/>
<path d="M2174 27 c-8 -21 2 -35 16 -21 5 5 6 15 0 24 -8 12 -10 12 -16 -3z"/>
</g>
</svg>
